<?xml version="1.0" encoding="UTF-8" standalone="no"?>
<svg
   xmlns:dc="http://purl.org/dc/elements/1.1/"
   xmlns:cc="http://creativecommons.org/ns#"
   xmlns:rdf="http://www.w3.org/1999/02/22-rdf-syntax-ns#"
   xmlns:svg="http://www.w3.org/2000/svg"
   xmlns="http://www.w3.org/2000/svg"
   xmlns:sodipodi="http://sodipodi.sourceforge.net/DTD/sodipodi-0.dtd"
   xmlns:inkscape="http://www.inkscape.org/namespaces/inkscape"
   width="1706.667"
   height="960"
   viewBox="0 0 451.55566 254.00001"
   version="1.1"
   id="svg8"
   inkscape:version="1.0.2 (e86c870, 2021-01-15)"
   sodipodi:docname="nieve.svg"
   inkscape:export-filename="C:\Users\ricar\Documents\Proyectos\Corazon\img\nieve.png"
   inkscape:export-xdpi="96"
   inkscape:export-ydpi="96">
  <defs
     id="defs2" />
  <sodipodi:namedview
     id="base"
     pagecolor="#ffffff"
     bordercolor="#666666"
     borderopacity="1.0"
     inkscape:pageopacity="0.0"
     inkscape:pageshadow="2"
     inkscape:zoom="0.175"
     inkscape:cx="242.5626"
     inkscape:cy="391.95531"
     inkscape:document-units="px"
     inkscape:current-layer="layer3"
     inkscape:document-rotation="0"
     showgrid="false"
     units="px"
     inkscape:snap-bbox="false"
     inkscape:bbox-paths="true"
     inkscape:bbox-nodes="true"
     inkscape:snap-bbox-edge-midpoints="true"
     inkscape:snap-bbox-midpoints="true"
     inkscape:snap-page="false"
     inkscape:window-width="1366"
     inkscape:window-height="705"
     inkscape:window-x="-8"
     inkscape:window-y="-8"
     inkscape:window-maximized="1" />
  <metadata
     id="metadata5">
    <rdf:RDF>
      <cc:Work
         rdf:about="">
        <dc:format>image/svg+xml</dc:format>
        <dc:type
           rdf:resource="http://purl.org/dc/dcmitype/StillImage" />
        <dc:title></dc:title>
      </cc:Work>
    </rdf:RDF>
  </metadata>
  <g
     inkscape:label="Capa 1"
     inkscape:groupmode="layer"
     id="layer1"
     sodipodi:insensitive="true"
     style="display:none">
    <path
       fill="currentColor"
       d="m -299.74604,-132.36052 c -14.49917,-12.35605 -36.06271,-10.13355 -49.37125,3.59833 l -5.21229,5.37104 -5.21229,-5.37104 c -13.28209,-13.73188 -34.87209,-15.95438 -49.37125,-3.59833 -16.61584,14.18166 -17.48896,39.634582 -2.61938,55.006872 l 51.19688,52.86376 c 3.30729,3.41312 8.67833,3.41312 11.98562,0 l 51.19688,-52.86376 c 14.89604,-15.37229 14.02291,-40.825212 -2.59292,-55.006872 z"
       id="path833"
       style="stroke-width:0.264583" />
    <rect
       style="opacity:0.7;fill:#000000;fill-opacity:1;stroke-width:0.168381"
       id="rect871"
       width="451.55566"
       height="254.00002"
       x="1.1546319e-14"
       y="-3.2418512e-14" />
  </g>
  <g
     inkscape:groupmode="layer"
     id="layer3"
     inkscape:label="Capa 2">
    <path
       fill="currentColor"
       d="m 20.269429,3.2364102 c -1.18385,-1.00887 -2.9445,-0.8274 -4.03114,0.2938 l -0.42558,0.43854 -0.42558,-0.43854 c -1.08447,-1.1212 -2.84728,-1.30267 -4.03113,-0.2938 -1.3566799,1.15792 -1.4279699,3.23614 -0.21387,4.49127 l 4.18019,4.3162998 c 0.27004,0.27868 0.70858,0.27868 0.97862,0 l 4.1802,-4.3162998 c 1.21625,-1.25513 1.14496,-3.33335 -0.21171,-4.49127 z"
       id="path855"
       style="stroke-width:0.0216031;fill:#ffffff" />
    <path
       fill="currentColor"
       d="m 16.111691,31.017661 c -1.18385,-1.00887 -2.9445,-0.8274 -4.03114,0.2938 l -0.42558,0.43854 -0.42558,-0.43854 c -1.08447,-1.1212 -2.8472803,-1.30267 -4.0311303,-0.2938 -1.3566799,1.15792 -1.4279699,3.23614 -0.21387,4.49127 l 4.1801903,4.3163 c 0.27004,0.27868 0.70858,0.27868 0.97862,0 l 4.1802,-4.3163 c 1.21625,-1.25513 1.14496,-3.33335 -0.21171,-4.49127 z"
       id="path955"
       style="stroke-width:0.0216031;fill:#ffffff" />
    <path
       fill="currentColor"
       d="m 49.184609,40.08909 c -1.18385,-1.00887 -2.9445,-0.8274 -4.03114,0.2938 l -0.42558,0.43854 -0.42558,-0.43854 c -1.08447,-1.1212 -2.84728,-1.30267 -4.03113,-0.2938 -1.35668,1.15792 -1.42797,3.23614 -0.21387,4.49127 l 4.18019,4.3163 c 0.27004,0.27868 0.70858,0.27868 0.97862,0 l 4.1802,-4.3163 c 1.21625,-1.25513 1.14496,-3.33335 -0.21171,-4.49127 z"
       id="path957"
       style="stroke-width:0.0216031;fill:#ffffff" />
    <path
       fill="currentColor"
       d="m 76.398896,15.709625 c -1.18385,-1.00887 -2.9445,-0.8274 -4.03114,0.2938 l -0.42558,0.43854 -0.42558,-0.43854 c -1.08447,-1.1212 -2.84728,-1.30267 -4.03113,-0.2938 -1.35668,1.15792 -1.42797,3.23614 -0.21387,4.49127 l 4.18019,4.3163 c 0.27004,0.27868 0.70858,0.27868 0.97862,0 l 4.1802,-4.3163 c 1.21625,-1.25513 1.14496,-3.33335 -0.21171,-4.49127 z"
       id="path959"
       style="stroke-width:0.0216031;fill:#ffffff" />
    <path
       fill="currentColor"
       d="m 124.96884,5.1262912 c -1.18385,-1.00887 -2.9445,-0.8274 -4.03114,0.2938 l -0.42558,0.43854 -0.42558,-0.43854 c -1.08447,-1.1212 -2.84728,-1.30267 -4.03113,-0.2938 -1.35668,1.15792 -1.42797,3.23614 -0.21387,4.49127 l 4.18019,4.3162998 c 0.27004,0.27868 0.70858,0.27868 0.97862,0 l 4.1802,-4.3162998 c 1.21625,-1.25513 1.14496,-3.33335 -0.21171,-4.49127 z"
       id="path961"
       style="stroke-width:0.0216031;fill:#ffffff" />
    <path
       fill="currentColor"
       d="m 121.18908,32.529566 c -1.18385,-1.00887 -2.9445,-0.8274 -4.03114,0.2938 l -0.42558,0.43854 -0.42558,-0.43854 c -1.08447,-1.1212 -2.84728,-1.30267 -4.03113,-0.2938 -1.35668,1.15792 -1.42797,3.23614 -0.21387,4.49127 l 4.18019,4.3163 c 0.27004,0.27868 0.70858,0.27868 0.97862,0 l 4.1802,-4.3163 c 1.21625,-1.25513 1.14496,-3.33335 -0.21171,-4.49127 z"
       id="path963"
       style="stroke-width:0.0216031;fill:#ffffff" />
    <path
       fill="currentColor"
       d="m 105.50307,48.593555 c -1.18385,-1.00887 -2.9445,-0.8274 -4.03114,0.2938 l -0.42558,0.43854 -0.42558,-0.43854 c -1.084473,-1.1212 -2.847283,-1.30267 -4.031133,-0.2938 -1.35668,1.15792 -1.42797,3.23614 -0.21387,4.49127 l 4.180193,4.3163 c 0.27004,0.27868 0.70858,0.27868 0.97862,0 l 4.1802,-4.3163 c 1.21625,-1.25513 1.14496,-3.33335 -0.21171,-4.49127 z"
       id="path965"
       style="stroke-width:0.0216031;fill:#ffffff" />
    <path
       fill="currentColor"
       d="m 93.029855,66.169449 c -1.18385,-1.00887 -2.9445,-0.8274 -4.03114,0.2938 l -0.42558,0.43854 -0.42558,-0.43854 c -1.084473,-1.1212 -2.847283,-1.30267 -4.031133,-0.2938 -1.35668,1.15792 -1.42797,3.23614 -0.21387,4.49127 l 4.180193,4.3163 c 0.27004,0.27868 0.70858,0.27868 0.97862,0 l 4.1802,-4.3163 c 1.21625,-1.25513 1.14496,-3.33335 -0.21171,-4.49127 z"
       id="path967"
       style="stroke-width:0.0216031;fill:#ffffff" />
    <path
       fill="currentColor"
       d="m 35.199495,69.004271 c -1.18385,-1.00887 -2.9445,-0.8274 -4.03114,0.2938 l -0.42558,0.43854 -0.42558,-0.43854 c -1.084473,-1.1212 -2.847283,-1.30267 -4.031133,-0.2938 -1.35668,1.15792 -1.42797,3.23614 -0.21387,4.49127 l 4.180193,4.3163 c 0.27004,0.27868 0.70858,0.27868 0.97862,0 l 4.1802,-4.3163 c 1.21625,-1.25513 1.14496,-3.33335 -0.21171,-4.49127 z"
       id="path969"
       style="stroke-width:0.0216031;fill:#ffffff" />
    <path
       fill="currentColor"
       d="m 55.61021,103.77808 c -1.18385,-1.00887 -2.9445,-0.8274 -4.03114,0.2938 l -0.42558,0.43854 -0.42558,-0.43854 c -1.084473,-1.1212 -2.847283,-1.30267 -4.031133,-0.2938 -1.35668,1.15792 -1.42797,3.23614 -0.21387,4.49127 l 4.180193,4.3163 c 0.27004,0.27868 0.70858,0.27868 0.97862,0 l 4.1802,-4.3163 c 1.21625,-1.25513 1.14496,-3.33335 -0.21171,-4.49127 z"
       id="path971"
       style="stroke-width:0.0216031;fill:#ffffff" />
    <path
       fill="currentColor"
       d="m 23.860209,112.09356 c -1.18385,-1.00887 -2.9445,-0.8274 -4.03114,0.2938 l -0.42558,0.43854 -0.42558,-0.43854 c -1.084473,-1.1212 -2.847283,-1.30267 -4.031133,-0.2938 -1.35668,1.15792 -1.42797,3.23614 -0.21387,4.49127 l 4.180193,4.3163 c 0.27004,0.27868 0.70858,0.27868 0.97862,0 l 4.1802,-4.3163 c 1.21625,-1.25513 1.14496,-3.33335 -0.21171,-4.49127 z"
       id="path973"
       style="stroke-width:0.0216031;fill:#ffffff" />
    <path
       fill="currentColor"
       d="m 14.008071,129.00719 c -0.675278,-0.57547 -1.679568,-0.47196 -2.299397,0.16758 l -0.242754,0.25015 -0.242755,-0.25015 c -0.618592,-0.63954 -1.6241135,-0.74305 -2.2993919,-0.16758 -0.7738619,0.66048 -0.8145263,1.84592 -0.1219933,2.56186 l 2.3844172,2.46205 c 0.154033,0.15896 0.40418,0.15896 0.558213,0 l 2.384422,-2.46205 c 0.69376,-0.71594 0.653095,-1.90138 -0.120761,-2.56186 z"
       id="path975"
       style="stroke-width:0.0123226;fill:#ffffff" />
    <path
       fill="currentColor"
       d="m 69.973306,140.25279 c -1.18385,-1.00887 -2.9445,-0.8274 -4.03114,0.2938 l -0.42558,0.43854 -0.42558,-0.43854 c -1.084473,-1.1212 -2.847283,-1.30267 -4.031133,-0.2938 -1.35668,1.15792 -1.42797,3.23614 -0.21387,4.49127 l 4.180193,4.3163 c 0.27004,0.27868 0.70858,0.27868 0.97862,0 l 4.1802,-4.3163 c 1.21625,-1.25513 1.14496,-3.33335 -0.21171,-4.49127 z"
       id="path977"
       style="stroke-width:0.0216031;fill:#ffffff" />
    <path
       fill="currentColor"
       d="m 101.54039,174.84416 c -1.18385,-1.00887 -2.944502,-0.8274 -4.031142,0.2938 l -0.42558,0.43854 -0.42558,-0.43854 c -1.084473,-1.1212 -2.847283,-1.30267 -4.031133,-0.2938 -1.35668,1.15792 -1.42797,3.23614 -0.21387,4.49127 l 4.180193,4.3163 c 0.27004,0.27868 0.70858,0.27868 0.97862,0 l 4.180202,-4.3163 c 1.21625,-1.25513 1.14496,-3.33335 -0.21171,-4.49127 z"
       id="path979"
       style="stroke-width:0.0216031;fill:#ffffff" />
    <path
       fill="currentColor"
       d="m 128.37063,116.2513 c -1.18385,-1.00887 -2.9445,-0.8274 -4.03114,0.2938 l -0.42558,0.43854 -0.42558,-0.43854 c -1.08447,-1.1212 -2.84728,-1.30267 -4.03113,-0.2938 -1.35668,1.15792 -1.42797,3.23614 -0.21387,4.49127 l 4.18019,4.3163 c 0.27004,0.27868 0.70858,0.27868 0.97862,0 l 4.1802,-4.3163 c 1.21625,-1.25513 1.14496,-3.33335 -0.21171,-4.49127 z"
       id="path981"
       style="stroke-width:0.0216031;fill:#ffffff" />
    <path
       fill="currentColor"
       d="m 118.54325,92.627787 c -1.18385,-1.00887 -2.9445,-0.8274 -4.03114,0.2938 l -0.42558,0.43854 -0.42558,-0.43854 c -1.08447,-1.1212 -2.84728,-1.30267 -4.03113,-0.2938 -1.35668,1.15792 -1.42797,3.23614 -0.21387,4.49127 l 4.18019,4.316303 c 0.27004,0.27868 0.70858,0.27868 0.97862,0 l 4.1802,-4.316303 c 1.21625,-1.25513 1.14496,-3.33335 -0.21171,-4.49127 z"
       id="path983"
       style="stroke-width:0.0216031;fill:#ffffff" />
    <path
       fill="currentColor"
       d="m 151.23819,61.822726 c -1.18385,-1.00887 -2.9445,-0.8274 -4.03114,0.2938 l -0.42558,0.43854 -0.42558,-0.43854 c -1.08447,-1.1212 -2.84728,-1.30267 -4.03113,-0.2938 -1.35668,1.15792 -1.42797,3.23614 -0.21387,4.49127 l 4.18019,4.316303 c 0.27004,0.27868 0.70858,0.27868 0.97862,0 l 4.1802,-4.316303 c 1.21625,-1.25513 1.14496,-3.33335 -0.21171,-4.49127 z"
       id="path985"
       style="stroke-width:0.0216031;fill:#ffffff" />
    <path
       fill="currentColor"
       d="m 172.39504,58.110803 c -0.62905,-0.536068 -1.56458,-0.439643 -2.14197,0.156112 l -0.22613,0.23302 -0.22614,-0.23302 c -0.57624,-0.595755 -1.51291,-0.69218 -2.14196,-0.156112 -0.72088,0.615266 -0.75876,1.719539 -0.11364,2.386458 l 2.22117,2.293489 c 0.14348,0.148078 0.3765,0.148078 0.51999,0 l 2.22117,-2.293489 c 0.64626,-0.666919 0.60838,-1.771192 -0.11249,-2.386458 z"
       id="path987"
       style="stroke-width:0.0114789;fill:#ffffff" />
    <path
       fill="currentColor"
       d="m 149.1495,38.078064 c -0.62905,-0.536068 -1.56458,-0.439643 -2.14197,0.156112 l -0.22613,0.23302 -0.22614,-0.23302 c -0.57624,-0.595755 -1.51291,-0.69218 -2.14196,-0.156112 -0.72088,0.615266 -0.75876,1.719539 -0.11364,2.386458 l 2.22117,2.293489 c 0.14348,0.148078 0.3765,0.148078 0.51999,0 l 2.22117,-2.293489 c 0.64626,-0.666919 0.60838,-1.771192 -0.11249,-2.386458 z"
       id="path989"
       style="stroke-width:0.0114789;fill:#ffffff" />
    <path
       fill="currentColor"
       d="m 178.44266,19.179254 c -0.62905,-0.536068 -1.56458,-0.439643 -2.14197,0.156112 l -0.22613,0.23302 -0.22614,-0.23302 c -0.57624,-0.595755 -1.51291,-0.69218 -2.14196,-0.156112 -0.72088,0.615266 -0.75876,1.719539 -0.11364,2.386458 l 2.22117,2.293489 c 0.14348,0.148078 0.3765,0.148078 0.51999,0 l 2.22117,-2.293489 c 0.64626,-0.666919 0.60838,-1.771192 -0.11249,-2.386458 z"
       id="path991"
       style="stroke-width:0.0114789;fill:#ffffff" />
    <path
       fill="currentColor"
       d="m 210.76944,51.050404 c -1.18385,-1.00887 -2.9445,-0.8274 -4.03114,0.2938 l -0.42558,0.43854 -0.42558,-0.43854 c -1.08447,-1.1212 -2.84728,-1.30267 -4.03113,-0.2938 -1.35668,1.15792 -1.42797,3.23614 -0.21387,4.49127 l 4.18019,4.316303 c 0.27004,0.27868 0.70858,0.27868 0.97862,0 l 4.1802,-4.316303 c 1.21625,-1.25513 1.14496,-3.33335 -0.21171,-4.49127 z"
       id="path993"
       style="stroke-width:0.0216031;fill:#ffffff" />
    <path
       fill="currentColor"
       d="m 234.95992,20.245343 c -1.18385,-1.00887 -2.9445,-0.8274 -4.03114,0.2938 l -0.42558,0.43854 -0.42558,-0.43854 c -1.08447,-1.1212 -2.84728,-1.30267 -4.03113,-0.2938 -1.35668,1.15792 -1.42797,3.23614 -0.21387,4.49127 l 4.18019,4.316303 c 0.27004,0.27868 0.70858,0.27868 0.97862,0 l 4.1802,-4.316303 c 1.21625,-1.25513 1.14496,-3.33335 -0.21171,-4.49127 z"
       id="path995"
       style="stroke-width:0.0216031;fill:#ffffff" />
    <path
       fill="currentColor"
       d="m 253.39628,38.585263 c -0.86022,-0.733069 -2.13955,-0.601208 -2.92913,0.213482 l -0.30923,0.318654 -0.30924,-0.318654 c -0.788,-0.81469 -2.0689,-0.946551 -2.92911,-0.213482 -0.9858,0.841372 -1.0376,2.351456 -0.15541,3.263464 l 3.03743,3.136328 c 0.19622,0.202495 0.51487,0.202495 0.71109,0 l 3.03743,-3.136328 c 0.88376,-0.912008 0.83195,-2.422092 -0.15383,-3.263464 z"
       id="path997"
       style="stroke-width:0.0156973;fill:#ffffff" />
    <path
       fill="currentColor"
       d="m 275.97034,51.617368 c -1.18385,-1.00887 -2.9445,-0.8274 -4.03114,0.2938 l -0.42558,0.43854 -0.42558,-0.43854 c -1.08447,-1.1212 -2.84728,-1.30267 -4.03113,-0.2938 -1.35668,1.15792 -1.42797,3.23614 -0.21387,4.49127 l 4.18019,4.316303 c 0.27004,0.27868 0.70858,0.27868 0.97862,0 l 4.1802,-4.316303 c 1.21625,-1.25513 1.14496,-3.33335 -0.21171,-4.49127 z"
       id="path999"
       style="stroke-width:0.0216031;fill:#ffffff" />
    <path
       fill="currentColor"
       d="m 196.88884,70.335264 c -0.86022,-0.733069 -2.13955,-0.601208 -2.92913,0.213482 l -0.30923,0.318654 -0.30924,-0.318654 c -0.788,-0.81469 -2.0689,-0.946551 -2.92911,-0.213482 -0.9858,0.841372 -1.0376,2.351456 -0.15541,3.263464 l 3.03743,3.136328 c 0.19622,0.202495 0.51487,0.202495 0.71109,0 l 3.03743,-3.136328 c 0.88376,-0.912008 0.83195,-2.422092 -0.15383,-3.263464 z"
       id="path1001"
       style="stroke-width:0.0156973;fill:#ffffff" />
    <path
       fill="currentColor"
       d="m 228.82783,70.902228 c -0.86022,-0.733069 -2.13955,-0.601208 -2.92913,0.213482 l -0.30923,0.318654 -0.30924,-0.318654 c -0.788,-0.81469 -2.0689,-0.946551 -2.92911,-0.213482 -0.9858,0.841372 -1.0376,2.351456 -0.15541,3.263464 l 3.03743,3.136328 c 0.19622,0.202495 0.51487,0.202495 0.71109,0 l 3.03743,-3.136328 c 0.88376,-0.912008 0.83195,-2.422092 -0.15383,-3.263464 z"
       id="path1003"
       style="stroke-width:0.0156973;fill:#ffffff" />
    <path
       fill="currentColor"
       d="m 242.62396,82.61949 c -0.86022,-0.733069 -2.13955,-0.601208 -2.92913,0.213482 l -0.30923,0.318654 -0.30924,-0.318654 c -0.788,-0.81469 -2.0689,-0.946551 -2.92911,-0.213482 -0.9858,0.841372 -1.0376,2.351456 -0.15541,3.263464 l 3.03743,3.136328 c 0.19622,0.202495 0.51487,0.202495 0.71109,0 l 3.03743,-3.136328 c 0.88376,-0.912008 0.83195,-2.422092 -0.15383,-3.263464 z"
       id="path1005"
       style="stroke-width:0.0156973;fill:#ffffff" />
    <path
       fill="currentColor"
       d="m 271.72813,28.379904 c -0.86022,-0.733069 -2.13955,-0.601208 -2.92913,0.213482 l -0.30923,0.318654 -0.30924,-0.318654 c -0.788,-0.81469 -2.0689,-0.946551 -2.92911,-0.213482 -0.9858,0.841372 -1.0376,2.351456 -0.15541,3.263464 l 3.03743,3.136328 c 0.19622,0.202495 0.51487,0.202495 0.71109,0 l 3.03743,-3.136328 c 0.88376,-0.912008 0.83195,-2.422092 -0.15383,-3.263464 z"
       id="path1007"
       style="stroke-width:0.0156973;fill:#ffffff" />
    <path
       fill="currentColor"
       d="m 311.9826,16.85163 c -0.86022,-0.733069 -2.13955,-0.601208 -2.92913,0.213482 l -0.30923,0.318654 -0.30924,-0.318654 c -0.788,-0.81469 -2.0689,-0.946551 -2.92911,-0.213482 -0.9858,0.841372 -1.0376,2.351456 -0.15541,3.263464 l 3.03743,3.136328 c 0.19622,0.202495 0.51487,0.202495 0.71109,0 l 3.03743,-3.136328 c 0.88376,-0.912008 0.83195,-2.422092 -0.15383,-3.263464 z"
       id="path1009"
       style="stroke-width:0.0156973;fill:#ffffff" />
    <path
       fill="currentColor"
       d="m 342.04281,17.314008 c -1.26477,-1.07782 -3.14575,-0.883946 -4.30666,0.31388 l -0.45466,0.468512 -0.45467,-0.468512 c -1.15858,-1.197826 -3.04187,-1.3917 -4.30662,-0.31388 -1.44941,1.237057 -1.52557,3.45731 -0.2285,4.798222 l 4.46589,4.611294 c 0.2885,0.297726 0.757,0.297726 1.0455,0 l 4.46589,-4.611294 c 1.29938,-1.340912 1.2232,-3.561165 -0.22617,-4.798222 z"
       id="path1011"
       style="stroke-width:0.0230795;fill:#ffffff" />
    <path
       fill="currentColor"
       d="m 340.34192,39.803592 c -1.26477,-1.07782 -3.14575,-0.883946 -4.30666,0.31388 l -0.45466,0.468512 -0.45467,-0.468512 c -1.15858,-1.197826 -3.04187,-1.3917 -4.30662,-0.31388 -1.44941,1.237057 -1.52557,3.45731 -0.2285,4.798222 l 4.46589,4.611294 c 0.2885,0.297726 0.757,0.297726 1.0455,0 l 4.46589,-4.611294 c 1.29938,-1.340912 1.2232,-3.561165 -0.22617,-4.798222 z"
       id="path1013"
       style="stroke-width:0.0230795;fill:#ffffff" />
    <path
       fill="currentColor"
       d="m 320.86631,79.747921 c -0.70996,-0.605018 -1.76582,-0.49619 -2.41748,0.176192 l -0.25521,0.262992 -0.25523,-0.262992 c -0.65035,-0.672382 -1.7075,-0.78121 -2.41745,-0.176192 -0.81361,0.694403 -0.85636,1.940709 -0.12827,2.69341 l 2.50686,2.58848 c 0.16195,0.167124 0.42493,0.167124 0.58688,0 l 2.50686,-2.58848 c 0.72939,-0.752701 0.68662,-1.999007 -0.12696,-2.69341 z"
       id="path1015"
       style="stroke-width:0.0129553;fill:#ffffff" />
    <path
       fill="currentColor"
       d="m 304.04637,91.654171 c -0.70996,-0.605018 -1.76582,-0.49619 -2.41748,0.176192 l -0.25521,0.262992 -0.25523,-0.262992 c -0.65035,-0.672382 -1.7075,-0.78121 -2.41745,-0.176192 -0.81361,0.694403 -0.85636,1.940709 -0.12827,2.69341 l 2.50686,2.58848 c 0.16195,0.167124 0.42493,0.167124 0.58688,0 l 2.50686,-2.58848 c 0.72939,-0.752701 0.68662,-1.999007 -0.12696,-2.69341 z"
       id="path1017"
       style="stroke-width:0.0129553;fill:#ffffff" />
    <path
       fill="currentColor"
       d="m 258.12226,106.96221 c -0.70996,-0.60502 -1.76582,-0.49619 -2.41748,0.17619 l -0.25521,0.26299 -0.25523,-0.26299 c -0.65035,-0.67238 -1.7075,-0.78121 -2.41745,-0.17619 -0.81361,0.6944 -0.85636,1.94071 -0.12827,2.69341 l 2.50686,2.58848 c 0.16195,0.16712 0.42493,0.16712 0.58688,0 l 2.50686,-2.58848 c 0.72939,-0.7527 0.68662,-1.99901 -0.12696,-2.69341 z"
       id="path1019"
       style="stroke-width:0.0129553;fill:#ffffff" />
    <path
       fill="currentColor"
       d="m 274.26945,114.73939 c -1.18385,-1.00887 -2.9445,-0.8274 -4.03114,0.2938 l -0.42558,0.43854 -0.42558,-0.43854 c -1.08447,-1.1212 -2.84728,-1.30267 -4.03113,-0.2938 -1.35668,1.15792 -1.42797,3.23614 -0.21387,4.49127 l 4.18019,4.31631 c 0.27004,0.27868 0.70858,0.27868 0.97862,0 l 4.1802,-4.31631 c 1.21625,-1.25513 1.14496,-3.33335 -0.21171,-4.49127 z"
       id="path1021"
       style="stroke-width:0.0216031;fill:#ffffff" />
    <path
       fill="currentColor"
       d="m 371.03135,127.77957 c -1.18385,-1.00887 -2.9445,-0.8274 -4.03114,0.2938 l -0.42558,0.43854 -0.42558,-0.43854 c -1.08447,-1.1212 -2.84728,-1.30267 -4.03113,-0.2938 -1.35668,1.15792 -1.42797,3.23614 -0.21387,4.49127 l 4.18019,4.31631 c 0.27004,0.27868 0.70858,0.27868 0.97862,0 l 4.1802,-4.31631 c 1.21625,-1.25513 1.14496,-3.33335 -0.21171,-4.49127 z"
       id="path1023"
       style="stroke-width:0.0216031;fill:#ffffff" />
    <path
       fill="currentColor"
       d="m 243.00321,63.494946 c -0.70996,-0.60502 -1.76582,-0.49619 -2.41748,0.17619 l -0.25521,0.26299 -0.25523,-0.26299 c -0.65035,-0.67238 -1.7075,-0.78121 -2.41745,-0.17619 -0.81361,0.6944 -0.85636,1.94071 -0.12827,2.69341 l 2.50686,2.58848 c 0.16195,0.16712 0.42493,0.16712 0.58688,0 l 2.50686,-2.58848 c 0.72939,-0.7527 0.68662,-1.99901 -0.12696,-2.69341 z"
       id="path1025"
       style="stroke-width:0.0129553;fill:#ffffff" />
    <path
       fill="currentColor"
       d="m 367.73536,39.871433 c -0.70996,-0.60502 -1.76582,-0.49619 -2.41748,0.17619 l -0.25521,0.26299 -0.25523,-0.26299 c -0.65035,-0.67238 -1.7075,-0.78121 -2.41745,-0.17619 -0.81361,0.6944 -0.85636,1.94071 -0.12827,2.69341 l 2.50686,2.58848 c 0.16195,0.16712 0.42493,0.16712 0.58688,0 l 2.50686,-2.58848 c 0.72939,-0.7527 0.68662,-1.99901 -0.12696,-2.69341 z"
       id="path1027"
       style="stroke-width:0.0129553;fill:#ffffff" />
    <path
       fill="currentColor"
       d="m 339.76512,74.645244 c -0.70996,-0.60502 -1.76582,-0.49619 -2.41748,0.17619 l -0.25521,0.26299 -0.25523,-0.26299 c -0.65035,-0.67238 -1.7075,-0.78121 -2.41745,-0.17619 -0.81361,0.6944 -0.85636,1.94071 -0.12827,2.69341 l 2.50686,2.58848 c 0.16195,0.16712 0.42493,0.16712 0.58688,0 l 2.50686,-2.58848 c 0.72939,-0.7527 0.68662,-1.99901 -0.12696,-2.69341 z"
       id="path1029"
       style="stroke-width:0.0129553;fill:#ffffff" />
    <path
       fill="currentColor"
       d="m 339.19816,94.111019 c -0.70996,-0.60502 -1.76582,-0.49619 -2.41748,0.17619 l -0.25521,0.26299 -0.25523,-0.26299 c -0.65035,-0.67238 -1.7075,-0.78121 -2.41745,-0.17619 -0.81361,0.6944 -0.85636,1.94071 -0.12827,2.69341 l 2.50686,2.58848 c 0.16195,0.16712 0.42493,0.16712 0.58688,0 l 2.50686,-2.58848 c 0.72939,-0.7527 0.68662,-1.99901 -0.12696,-2.69341 z"
       id="path1031"
       style="stroke-width:0.0129553;fill:#ffffff" />
    <path
       fill="currentColor"
       d="m 364.33358,109.23007 c -0.70996,-0.60502 -1.76582,-0.49619 -2.41748,0.17619 l -0.25521,0.26299 -0.25523,-0.26299 c -0.65035,-0.67238 -1.7075,-0.78121 -2.41745,-0.17619 -0.81361,0.6944 -0.85636,1.94071 -0.12827,2.69341 l 2.50686,2.58848 c 0.16195,0.16712 0.42493,0.16712 0.58688,0 l 2.50686,-2.58848 c 0.72939,-0.7527 0.68662,-1.99901 -0.12696,-2.69341 z"
       id="path1033"
       style="stroke-width:0.0129553;fill:#ffffff" />
    <path
       fill="currentColor"
       d="m 371.13715,66.518759 c -0.70996,-0.60502 -1.76582,-0.49619 -2.41748,0.17619 l -0.25521,0.26299 -0.25523,-0.26299 c -0.65035,-0.67238 -1.7075,-0.78121 -2.41745,-0.17619 -0.81361,0.6944 -0.85636,1.94071 -0.12827,2.69341 l 2.50686,2.58848 c 0.16195,0.16712 0.42493,0.16712 0.58688,0 l 2.50686,-2.58848 c 0.72939,-0.7527 0.68662,-1.99901 -0.12696,-2.69341 z"
       id="path1035"
       style="stroke-width:0.0129553;fill:#ffffff" />
    <path
       fill="currentColor"
       d="m 321.70546,104.15606 c -1.18385,-1.00887 -2.9445,-0.8274 -4.03114,0.2938 l -0.42558,0.43854 -0.42558,-0.43854 c -1.08447,-1.1212 -2.84728,-1.30267 -4.03113,-0.2938 -1.35668,1.15792 -1.42797,3.23614 -0.21387,4.49127 l 4.18019,4.31631 c 0.27004,0.27868 0.70858,0.27868 0.97862,0 l 4.1802,-4.31631 c 1.21625,-1.25513 1.14496,-3.33335 -0.21171,-4.49127 z"
       id="path1037"
       style="stroke-width:0.0216031;fill:#ffffff" />
    <path
       fill="currentColor"
       d="m 295.38804,11.644656 c -0.70996,-0.60502 -1.76582,-0.49619 -2.41748,0.17619 l -0.25521,0.26299 -0.25523,-0.26299 c -0.65035,-0.67238 -1.7075,-0.78121 -2.41745,-0.17619 -0.81361,0.6944 -0.85636,1.94071 -0.12827,2.69341 l 2.50686,2.58848 c 0.16195,0.16712 0.42493,0.16712 0.58688,0 l 2.50686,-2.58848 c 0.72939,-0.7527 0.68662,-1.99901 -0.12696,-2.69341 z"
       id="path1039"
       style="stroke-width:0.0129553;fill:#ffffff" />
    <path
       fill="currentColor"
       d="m 324.25315,0 c -0.70996,-0.60502 -1.76582,-0.49619 -2.41748,0.17619 l -0.25521,0.26299 -0.25523,-0.26299 C 320.67488,-0.49619 319.61773,-0.60502 318.90778,0 c -0.81361,0.6944 -0.85636,1.94071 -0.12827,2.69341 l 2.50686,2.58848 c 0.16195,0.16712 0.42493,0.16712 0.58688,0 l 2.50686,-2.58848 C 325.1095,1.94071 325.06673,0.6944 324.25315,0 Z"
       id="path1041"
       style="stroke-width:0.0129553;fill:#ffffff" />
    <path
       fill="currentColor"
       d="m 392.67415,22.450641 c -0.70996,-0.60502 -1.76582,-0.49619 -2.41748,0.17619 l -0.25521,0.26299 -0.25523,-0.26299 c -0.65035,-0.67238 -1.7075,-0.78121 -2.41745,-0.17619 -0.81361,0.6944 -0.85636,1.94071 -0.12827,2.69341 l 2.50686,2.58848 c 0.16195,0.16712 0.42493,0.16712 0.58688,0 l 2.50686,-2.58848 c 0.72939,-0.7527 0.68662,-1.99901 -0.12696,-2.69341 z"
       id="path1043"
       style="stroke-width:0.0129553;fill:#ffffff" />
    <path
       fill="currentColor"
       d="m 408.02035,29.635563 c -0.70996,-0.60502 -1.76582,-0.49619 -2.41748,0.17619 l -0.25521,0.26299 -0.25523,-0.26299 c -0.65035,-0.67238 -1.7075,-0.78121 -2.41745,-0.17619 -0.81361,0.6944 -0.85636,1.94071 -0.12827,2.69341 l 2.50686,2.58848 c 0.16195,0.16712 0.42493,0.16712 0.58688,0 l 2.50686,-2.58848 c 0.72939,-0.7527 0.68662,-1.99901 -0.12696,-2.69341 z"
       id="path1045"
       style="stroke-width:0.0129553;fill:#ffffff" />
    <path
       fill="currentColor"
       d="m 420.31475,11.461234 c -0.70996,-0.60502 -1.76582,-0.49619 -2.41748,0.17619 l -0.25521,0.26299 -0.25523,-0.26299 c -0.65035,-0.67238 -1.7075,-0.78121 -2.41745,-0.17619 -0.81361,0.6944 -0.85636,1.94071 -0.12827,2.69341 l 2.50686,2.58848 c 0.16195,0.16712 0.42493,0.16712 0.58688,0 l 2.50686,-2.58848 c 0.72939,-0.7527 0.68662,-1.99901 -0.12696,-2.69341 z"
       id="path1047"
       style="stroke-width:0.0129553;fill:#ffffff" />
    <path
       fill="currentColor"
       d="m 436.77966,30.493458 c -1.18385,-1.00887 -2.9445,-0.8274 -4.03114,0.2938 l -0.42558,0.43854 -0.42558,-0.43854 c -1.08447,-1.1212 -2.84728,-1.30267 -4.03113,-0.2938 -1.35668,1.15792 -1.42797,3.23614 -0.21387,4.49127 l 4.18019,4.31631 c 0.27004,0.27868 0.70858,0.27868 0.97862,0 l 4.1802,-4.31631 c 1.21625,-1.25513 1.14496,-3.33335 -0.21171,-4.49127 z"
       id="path1049"
       style="stroke-width:0.0216031;fill:#ffffff" />
    <path
       fill="currentColor"
       d="m 434.21276,54.758899 c -0.70996,-0.60502 -1.76582,-0.49619 -2.41748,0.17619 l -0.25521,0.26299 -0.25523,-0.26299 c -0.65035,-0.67238 -1.7075,-0.78121 -2.41745,-0.17619 -0.81361,0.6944 -0.85636,1.94071 -0.12827,2.69341 l 2.50686,2.58848 c 0.16195,0.16712 0.42493,0.16712 0.58688,0 l 2.50686,-2.58848 c 0.72939,-0.7527 0.68662,-1.99901 -0.12696,-2.69341 z"
       id="path1051"
       style="stroke-width:0.0129553;fill:#ffffff" />
    <path
       fill="currentColor"
       d="m 452.92353,108.73621 c -0.70996,-0.60502 -1.76582,-0.49619 -2.41748,0.17619 l -0.25521,0.26299 -0.25523,-0.26299 c -0.65035,-0.67238 -1.7075,-0.78121 -2.41745,-0.17619 -0.81361,0.6944 -0.85636,1.94071 -0.12827,2.69341 l 2.50686,2.58848 c 0.16195,0.16712 0.42493,0.16712 0.58688,0 l 2.50686,-2.58848 c 0.72939,-0.7527 0.68662,-1.99901 -0.12696,-2.69341 z"
       id="path1053"
       style="stroke-width:0.0129553;fill:#ffffff" />
    <path
       fill="currentColor"
       d="m 409.51816,101.05262 c -1.18385,-1.00887 -2.9445,-0.8274 -4.03114,0.2938 l -0.42558,0.43854 -0.42558,-0.43854 c -1.08447,-1.1212 -2.84728,-1.30267 -4.03113,-0.2938 -1.35668,1.15792 -1.42797,3.23614 -0.21387,4.49127 l 4.18019,4.31631 c 0.27004,0.27868 0.70858,0.27868 0.97862,0 l 4.1802,-4.31631 c 1.21625,-1.25513 1.14496,-3.33335 -0.21171,-4.49127 z"
       id="path1055"
       style="stroke-width:0.0216031;fill:#ffffff" />
    <path
       fill="currentColor"
       d="m 383.98834,117.92352 c -0.70996,-0.60502 -1.76582,-0.49619 -2.41748,0.17619 l -0.25521,0.26299 -0.25523,-0.26299 c -0.65035,-0.67238 -1.7075,-0.78121 -2.41745,-0.17619 -0.81361,0.6944 -0.85636,1.94071 -0.12827,2.69341 l 2.50686,2.58848 c 0.16195,0.16712 0.42493,0.16712 0.58688,0 l 2.50686,-2.58848 c 0.72939,-0.7527 0.68662,-1.99901 -0.12696,-2.69341 z"
       id="path1057"
       style="stroke-width:0.0129553;fill:#ffffff" />
    <path
       fill="currentColor"
       d="m 355.82911,145.13781 c -0.70996,-0.60502 -1.76582,-0.49619 -2.41748,0.17619 l -0.25521,0.26299 -0.25523,-0.26299 c -0.65035,-0.67238 -1.7075,-0.78121 -2.41745,-0.17619 -0.81361,0.6944 -0.85636,1.94071 -0.12827,2.69341 l 2.50686,2.58848 c 0.16195,0.16712 0.42493,0.16712 0.58688,0 l 2.50686,-2.58848 c 0.72939,-0.7527 0.68662,-1.99901 -0.12696,-2.69341 z"
       id="path1059"
       style="stroke-width:0.0129553;fill:#ffffff" />
    <path
       fill="currentColor"
       d="m 425.37673,106.39525 c -0.70996,-0.60502 -1.76582,-0.49619 -2.41748,0.17619 l -0.25521,0.26299 -0.25523,-0.26299 c -0.65035,-0.67238 -1.7075,-0.78121 -2.41745,-0.17619 -0.81361,0.6944 -0.85636,1.94071 -0.12827,2.69341 l 2.50686,2.58848 c 0.16195,0.16712 0.42493,0.16712 0.58688,0 l 2.50686,-2.58848 c 0.72939,-0.7527 0.68662,-1.99901 -0.12696,-2.69341 z"
       id="path1061"
       style="stroke-width:0.0129553;fill:#ffffff" />
    <path
       fill="currentColor"
       d="m 425.37673,106.39525 c -0.70996,-0.60502 -1.76582,-0.49619 -2.41748,0.17619 l -0.25521,0.26299 -0.25523,-0.26299 c -0.65035,-0.67238 -1.7075,-0.78121 -2.41745,-0.17619 -0.81361,0.6944 -0.85636,1.94071 -0.12827,2.69341 l 2.50686,2.58848 c 0.16195,0.16712 0.42493,0.16712 0.58688,0 l 2.50686,-2.58848 c 0.72939,-0.7527 0.68662,-1.99901 -0.12696,-2.69341 z"
       id="path1063"
       style="stroke-width:0.0129553;fill:#ffffff" />
    <path
       fill="currentColor"
       d="m 415.88186,115.16181 c -0.70996,-0.60502 -1.76582,-0.49619 -2.41748,0.17619 l -0.25521,0.26299 -0.25523,-0.26299 c -0.65035,-0.67238 -1.7075,-0.78121 -2.41745,-0.17619 -0.81361,0.6944 -0.85636,1.94071 -0.12827,2.69341 l 2.50686,2.58848 c 0.16195,0.16712 0.42493,0.16712 0.58688,0 l 2.50686,-2.58848 c 0.72939,-0.7527 0.68662,-1.99901 -0.12696,-2.69341 z"
       id="path1065"
       style="stroke-width:0.0129553;fill:#ffffff" />
    <path
       fill="currentColor"
       d="m 450.65567,132.54872 c -0.70996,-0.60502 -1.76582,-0.49619 -2.41748,0.17619 l -0.25521,0.26299 -0.25523,-0.26299 c -0.65035,-0.67238 -1.7075,-0.78121 -2.41745,-0.17619 -0.81361,0.6944 -0.85636,1.94071 -0.12827,2.69341 l 2.50686,2.58848 c 0.16195,0.16712 0.42493,0.16712 0.58688,0 l 2.50686,-2.58848 c 0.72939,-0.7527 0.68662,-1.99901 -0.12696,-2.69341 z"
       id="path1067"
       style="stroke-width:0.0129553;fill:#ffffff" />
    <path
       fill="currentColor"
       d="m 436.71602,89.764297 c -0.70996,-0.60502 -1.76582,-0.49619 -2.41748,0.17619 l -0.25521,0.26299 -0.25523,-0.26299 c -0.65035,-0.67238 -1.7075,-0.78121 -2.41745,-0.17619 -0.81361,0.6944 -0.85636,1.94071 -0.12827,2.69341 l 2.50686,2.58848 c 0.16195,0.16712 0.42493,0.16712 0.58688,0 l 2.50686,-2.58848 c 0.72939,-0.7527 0.68662,-1.99901 -0.12696,-2.69341 z"
       id="path1069"
       style="stroke-width:0.0129553;fill:#ffffff" />
    <path
       fill="currentColor"
       d="m 419.91251,91.225239 c -1.18385,-1.00887 -2.9445,-0.8274 -4.03114,0.2938 l -0.42558,0.43854 -0.42558,-0.43854 c -1.08447,-1.1212 -2.84728,-1.30267 -4.03113,-0.2938 -1.35668,1.15792 -1.42797,3.23614 -0.21387,4.49127 l 4.18019,4.316311 c 0.27004,0.27868 0.70858,0.27868 0.97862,0 l 4.1802,-4.316311 c 1.21625,-1.25513 1.14496,-3.33335 -0.21171,-4.49127 z"
       id="path1071"
       style="stroke-width:0.0216031;fill:#ffffff" />
    <path
       fill="currentColor"
       d="m 434.44816,169.51727 c -0.70996,-0.60502 -1.76582,-0.49619 -2.41748,0.17619 l -0.25521,0.26299 -0.25523,-0.26299 c -0.65035,-0.67238 -1.7075,-0.78121 -2.41745,-0.17619 -0.81361,0.6944 -0.85636,1.94071 -0.12827,2.69341 l 2.50686,2.58848 c 0.16195,0.16712 0.42493,0.16712 0.58688,0 l 2.50686,-2.58848 c 0.72939,-0.7527 0.68662,-1.99901 -0.12696,-2.69341 z"
       id="path1073"
       style="stroke-width:0.0129553;fill:#ffffff" />
    <path
       fill="currentColor"
       d="m 428.21155,175.75388 c -0.70996,-0.60502 -1.76582,-0.49619 -2.41748,0.17619 l -0.25521,0.26299 -0.25523,-0.26299 c -0.65035,-0.67238 -1.7075,-0.78121 -2.41745,-0.17619 -0.81361,0.6944 -0.85636,1.94071 -0.12827,2.69341 l 2.50686,2.58848 c 0.16195,0.16712 0.42493,0.16712 0.58688,0 l 2.50686,-2.58848 c 0.72939,-0.7527 0.68662,-1.99901 -0.12696,-2.69341 z"
       id="path1075"
       style="stroke-width:0.0129553;fill:#ffffff" />
    <path
       fill="currentColor"
       d="m 387.95709,144.75983 c -0.70996,-0.60502 -1.76582,-0.49619 -2.41748,0.17619 l -0.25521,0.26299 -0.25523,-0.26299 c -0.65035,-0.67238 -1.7075,-0.78121 -2.41745,-0.17619 -0.81361,0.6944 -0.85636,1.94071 -0.12827,2.69341 l 2.50686,2.58848 c 0.16195,0.16712 0.42493,0.16712 0.58688,0 l 2.50686,-2.58848 c 0.72939,-0.7527 0.68662,-1.99901 -0.12696,-2.69341 z"
       id="path1077"
       style="stroke-width:0.0129553;fill:#ffffff" />
    <path
       fill="currentColor"
       d="m 357.53001,152.69733 c -0.70996,-0.60502 -1.76582,-0.49619 -2.41748,0.17619 l -0.25521,0.26299 -0.25523,-0.26299 c -0.65035,-0.67238 -1.7075,-0.78121 -2.41745,-0.17619 -0.81361,0.6944 -0.85636,1.94071 -0.12827,2.69341 l 2.50686,2.58848 c 0.16195,0.16712 0.42493,0.16712 0.58688,0 l 2.50686,-2.58848 c 0.72939,-0.7527 0.68662,-1.99901 -0.12696,-2.69341 z"
       id="path1079"
       style="stroke-width:0.0129553;fill:#ffffff" />
    <path
       fill="currentColor"
       d="m 356.66825,170.67987 c -1.18385,-1.00887 -2.9445,-0.8274 -4.03114,0.2938 l -0.42558,0.43854 -0.42558,-0.43854 c -1.08447,-1.1212 -2.84728,-1.30267 -4.03113,-0.2938 -1.35668,1.15792 -1.42797,3.23614 -0.21387,4.49127 l 4.18019,4.31631 c 0.27004,0.27868 0.70858,0.27868 0.97862,0 l 4.1802,-4.31631 c 1.21625,-1.25513 1.14496,-3.33335 -0.21171,-4.49127 z"
       id="path1081"
       style="stroke-width:0.0216031;fill:#ffffff" />
    <path
       fill="currentColor"
       d="m 398.72941,187.09317 c -0.70996,-0.60502 -1.76582,-0.49619 -2.41748,0.17619 l -0.25521,0.26299 -0.25523,-0.26299 c -0.65035,-0.67238 -1.7075,-0.78121 -2.41745,-0.17619 -0.81361,0.6944 -0.85636,1.94071 -0.12827,2.69341 l 2.50686,2.58848 c 0.16195,0.16712 0.42493,0.16712 0.58688,0 l 2.50686,-2.58848 c 0.72939,-0.7527 0.68662,-1.99901 -0.12696,-2.69341 z"
       id="path1083"
       style="stroke-width:0.0129553;fill:#ffffff" />
    <path
       fill="currentColor"
       d="m 415.17137,193.70775 c -0.70996,-0.60502 -1.76582,-0.49619 -2.41748,0.17619 l -0.25521,0.26299 -0.25523,-0.26299 c -0.65035,-0.67238 -1.7075,-0.78121 -2.41745,-0.17619 -0.81361,0.6944 -0.85636,1.94071 -0.12827,2.69341 l 2.50686,2.58848 c 0.16195,0.16712 0.42493,0.16712 0.58688,0 l 2.50686,-2.58848 c 0.72939,-0.7527 0.68662,-1.99901 -0.12696,-2.69341 z"
       id="path1085"
       style="stroke-width:0.0129553;fill:#ffffff" />
    <path
       fill="currentColor"
       d="m 432.1803,191.81787 c -0.70996,-0.60502 -1.76582,-0.49619 -2.41748,0.17619 l -0.25521,0.26299 -0.25523,-0.26299 c -0.65035,-0.67238 -1.7075,-0.78121 -2.41745,-0.17619 -0.81361,0.6944 -0.85636,1.94071 -0.12827,2.69341 l 2.50686,2.58848 c 0.16195,0.16712 0.42493,0.16712 0.58688,0 l 2.50686,-2.58848 c 0.72939,-0.7527 0.68662,-1.99901 -0.12696,-2.69341 z"
       id="path1087"
       style="stroke-width:0.0129553;fill:#ffffff" />
    <path
       fill="currentColor"
       d="m 444.08655,195.59763 c -0.70996,-0.60502 -1.76582,-0.49619 -2.41748,0.17619 l -0.25521,0.26299 -0.25523,-0.26299 c -0.65035,-0.67238 -1.7075,-0.78121 -2.41745,-0.17619 -0.81361,0.6944 -0.85636,1.94071 -0.12827,2.69341 l 2.50686,2.58848 c 0.16195,0.16712 0.42493,0.16712 0.58688,0 l 2.50686,-2.58848 c 0.72939,-0.7527 0.68662,-1.99901 -0.12696,-2.69341 z"
       id="path1089"
       style="stroke-width:0.0129553;fill:#ffffff" />
    <path
       fill="currentColor"
       d="m 374.72792,205.614 c -0.70996,-0.60502 -1.76582,-0.49619 -2.41748,0.17619 l -0.25521,0.26299 -0.25523,-0.26299 c -0.65035,-0.67238 -1.7075,-0.78121 -2.41745,-0.17619 -0.81361,0.6944 -0.85636,1.94071 -0.12827,2.69341 l 2.50686,2.58848 c 0.16195,0.16712 0.42493,0.16712 0.58688,0 l 2.50686,-2.58848 c 0.72939,-0.7527 0.68662,-1.99901 -0.12696,-2.69341 z"
       id="path1091"
       style="stroke-width:0.0129553;fill:#ffffff" />
    <path
       fill="currentColor"
       d="m 388.60724,205.45368 c -1.18385,-1.00887 -2.9445,-0.8274 -4.03114,0.2938 l -0.42558,0.43854 -0.42558,-0.43854 c -1.08447,-1.1212 -2.84728,-1.30267 -4.03113,-0.2938 -1.35668,1.15792 -1.42797,3.23614 -0.21387,4.49127 l 4.18019,4.31631 c 0.27004,0.27868 0.70858,0.27868 0.97862,0 l 4.1802,-4.31631 c 1.21625,-1.25513 1.14496,-3.33335 -0.21171,-4.49127 z"
       id="path1093"
       style="stroke-width:0.0216031;fill:#ffffff" />
    <path
       fill="currentColor"
       d="m 440.49578,219.22114 c -0.70996,-0.60502 -1.76582,-0.49619 -2.41748,0.17619 l -0.25521,0.26299 -0.25523,-0.26299 c -0.65035,-0.67238 -1.7075,-0.78121 -2.41745,-0.17619 -0.81361,0.6944 -0.85636,1.94071 -0.12827,2.69341 l 2.50686,2.58848 c 0.16195,0.16712 0.42493,0.16712 0.58688,0 l 2.50686,-2.58848 c 0.72939,-0.7527 0.68662,-1.99901 -0.12696,-2.69341 z"
       id="path1095"
       style="stroke-width:0.0129553;fill:#ffffff" />
    <path
       fill="currentColor"
       d="m 379.45262,230.56043 c -0.70996,-0.60502 -1.76582,-0.49619 -2.41748,0.17619 l -0.25521,0.26299 -0.25523,-0.26299 c -0.65035,-0.67238 -1.7075,-0.78121 -2.41745,-0.17619 -0.81361,0.6944 -0.85636,1.94071 -0.12827,2.69341 l 2.50686,2.58848 c 0.16195,0.16712 0.42493,0.16712 0.58688,0 l 2.50686,-2.58848 c 0.72939,-0.7527 0.68662,-1.99901 -0.12696,-2.69341 z"
       id="path1097"
       style="stroke-width:0.0129553;fill:#ffffff" />
    <path
       fill="currentColor"
       d="m 349.10873,237.95963 c -1.18385,-1.00887 -2.9445,-0.8274 -4.03114,0.2938 l -0.42558,0.43854 -0.42558,-0.43854 c -1.08447,-1.1212 -2.84728,-1.30267 -4.03113,-0.2938 -1.35668,1.15792 -1.42797,3.23614 -0.21387,4.49127 l 4.18019,4.31631 c 0.27004,0.27868 0.70858,0.27868 0.97862,0 l 4.1802,-4.31631 c 1.21625,-1.25513 1.14496,-3.33335 -0.21171,-4.49127 z"
       id="path1099"
       style="stroke-width:0.0216031;fill:#ffffff" />
    <path
       fill="currentColor"
       d="m 371.51512,221.86698 c -0.70996,-0.60502 -1.76582,-0.49619 -2.41748,0.17619 l -0.25521,0.26299 -0.25523,-0.26299 c -0.65035,-0.67238 -1.7075,-0.78121 -2.41745,-0.17619 -0.81361,0.6944 -0.85636,1.94071 -0.12827,2.69341 l 2.50686,2.58848 c 0.16195,0.16712 0.42493,0.16712 0.58688,0 l 2.50686,-2.58848 c 0.72939,-0.7527 0.68662,-1.99901 -0.12696,-2.69341 z"
       id="path1101"
       style="stroke-width:0.0129553;fill:#ffffff" />
    <path
       fill="currentColor"
       d="m 326.43016,186.93284 c -1.18385,-1.00887 -2.9445,-0.8274 -4.03114,0.2938 l -0.42558,0.43854 -0.42558,-0.43854 c -1.08447,-1.1212 -2.84728,-1.30267 -4.03113,-0.2938 -1.35668,1.15792 -1.42797,3.23614 -0.21387,4.49127 l 4.18019,4.31631 c 0.27004,0.27868 0.70858,0.27868 0.97862,0 l 4.1802,-4.31631 c 1.21625,-1.25513 1.14496,-3.33335 -0.21171,-4.49127 z"
       id="path1103"
       style="stroke-width:0.0216031;fill:#ffffff" />
    <path
       fill="currentColor"
       d="m 310.93314,223.97451 c -1.18385,-1.00887 -2.9445,-0.8274 -4.03114,0.2938 l -0.42558,0.43854 -0.42558,-0.43854 c -1.08447,-1.1212 -2.84728,-1.30267 -4.03113,-0.2938 -1.35668,1.15792 -1.42797,3.23614 -0.21387,4.49127 l 4.18019,4.31631 c 0.27004,0.27868 0.70858,0.27868 0.97862,0 l 4.1802,-4.31631 c 1.21625,-1.25513 1.14496,-3.33335 -0.21171,-4.49127 z"
       id="path1105"
       style="stroke-width:0.0216031;fill:#ffffff" />
    <path
       fill="currentColor"
       d="m 307.34237,243.81826 c -1.18385,-1.00887 -2.9445,-0.8274 -4.03114,0.2938 l -0.42558,0.43854 -0.42558,-0.43854 c -1.08447,-1.1212 -2.84728,-1.30267 -4.03113,-0.2938 -1.35668,1.15792 -1.42797,3.23614 -0.21387,4.49127 l 4.18019,4.31631 c 0.27004,0.27868 0.70858,0.27868 0.97862,0 l 4.1802,-4.31631 c 1.21625,-1.25513 1.14496,-3.33335 -0.21171,-4.49127 z"
       id="path1107"
       style="stroke-width:0.0216031;fill:#ffffff" />
    <path
       fill="currentColor"
       d="m 328.04787,161.76876 c -0.70996,-0.60502 -1.76582,-0.49619 -2.41748,0.17619 l -0.25521,0.26299 -0.25523,-0.26299 c -0.65035,-0.67238 -1.7075,-0.78121 -2.41745,-0.17619 -0.81361,0.6944 -0.85636,1.94071 -0.12827,2.69341 l 2.50686,2.58848 c 0.16195,0.16712 0.42493,0.16712 0.58688,0 l 2.50686,-2.58848 c 0.72939,-0.7527 0.68662,-1.99901 -0.12696,-2.69341 z"
       id="path1109"
       style="stroke-width:0.0129553;fill:#ffffff" />
    <path
       fill="currentColor"
       d="m 311.98388,143.6259 c -0.70996,-0.60502 -1.76582,-0.49619 -2.41748,0.17619 l -0.25521,0.26299 -0.25523,-0.26299 c -0.65035,-0.67238 -1.7075,-0.78121 -2.41745,-0.17619 -0.81361,0.6944 -0.85636,1.94071 -0.12827,2.69341 l 2.50686,2.58848 c 0.16195,0.16712 0.42493,0.16712 0.58688,0 l 2.50686,-2.58848 c 0.72939,-0.7527 0.68662,-1.99901 -0.12696,-2.69341 z"
       id="path1111"
       style="stroke-width:0.0129553;fill:#ffffff" />
    <path
       fill="currentColor"
       d="m 299.32168,159.87888 c -0.70996,-0.60502 -1.76582,-0.49619 -2.41748,0.17619 l -0.25521,0.26299 -0.25523,-0.26299 c -0.65035,-0.67238 -1.7075,-0.78121 -2.41745,-0.17619 -0.81361,0.6944 -0.85636,1.94071 -0.12827,2.69341 l 2.50686,2.58848 c 0.16195,0.16712 0.42493,0.16712 0.58688,0 l 2.50686,-2.58848 c 0.72939,-0.7527 0.68662,-1.99901 -0.12696,-2.69341 z"
       id="path1113"
       style="stroke-width:0.0129553;fill:#ffffff" />
    <path
       fill="currentColor"
       d="m 284.39162,154.39823 c -0.70996,-0.60502 -1.76582,-0.49619 -2.41748,0.17619 l -0.25521,0.26299 -0.25523,-0.26299 c -0.65035,-0.67238 -1.7075,-0.78121 -2.41745,-0.17619 -0.81361,0.6944 -0.85636,1.94071 -0.12827,2.69341 l 2.50686,2.58848 c 0.16195,0.16712 0.42493,0.16712 0.58688,0 l 2.50686,-2.58848 c 0.72939,-0.7527 0.68662,-1.99901 -0.12696,-2.69341 z"
       id="path1115"
       style="stroke-width:0.0129553;fill:#ffffff" />
    <path
       fill="currentColor"
       d="m 270.97346,149.10656 c -0.70996,-0.60502 -1.76582,-0.49619 -2.41748,0.17619 l -0.25521,0.26299 -0.25523,-0.26299 c -0.65035,-0.67238 -1.7075,-0.78121 -2.41745,-0.17619 -0.81361,0.6944 -0.85636,1.94071 -0.12827,2.69341 l 2.50686,2.58848 c 0.16195,0.16712 0.42493,0.16712 0.58688,0 l 2.50686,-2.58848 c 0.72939,-0.7527 0.68662,-1.99901 -0.12696,-2.69341 z"
       id="path1117"
       style="stroke-width:0.0129553;fill:#ffffff" />
    <path
       fill="currentColor"
       d="m 273.80828,126.239 c -0.70996,-0.60502 -1.76582,-0.49619 -2.41748,0.17619 l -0.25521,0.26299 -0.25523,-0.26299 c -0.65035,-0.67238 -1.7075,-0.78121 -2.41745,-0.17619 -0.81361,0.6944 -0.85636,1.94071 -0.12827,2.69341 l 2.50686,2.58848 c 0.16195,0.16712 0.42493,0.16712 0.58688,0 l 2.50686,-2.58848 c 0.72939,-0.7527 0.68662,-1.99901 -0.12696,-2.69341 z"
       id="path1119"
       style="stroke-width:0.0129553;fill:#ffffff" />
    <path
       fill="currentColor"
       d="m 259.44518,134.55448 c -0.70996,-0.60502 -1.76582,-0.49619 -2.41748,0.17619 l -0.25521,0.26299 -0.25523,-0.26299 c -0.65035,-0.67238 -1.7075,-0.78121 -2.41745,-0.17619 -0.81361,0.6944 -0.85636,1.94071 -0.12827,2.69341 l 2.50686,2.58848 c 0.16195,0.16712 0.42493,0.16712 0.58688,0 l 2.50686,-2.58848 c 0.72939,-0.7527 0.68662,-1.99901 -0.12696,-2.69341 z"
       id="path1121"
       style="stroke-width:0.0129553;fill:#ffffff" />
    <path
       fill="currentColor"
       d="m 259.0672,172.16311 c -0.70996,-0.60502 -1.76582,-0.49619 -2.41748,0.17619 l -0.25521,0.26299 -0.25523,-0.26299 c -0.65035,-0.67238 -1.7075,-0.78121 -2.41745,-0.17619 -0.81361,0.6944 -0.85636,1.94071 -0.12827,2.69341 l 2.50686,2.58848 c 0.16195,0.16712 0.42493,0.16712 0.58688,0 l 2.50686,-2.58848 c 0.72939,-0.7527 0.68662,-1.99901 -0.12696,-2.69341 z"
       id="path1123"
       style="stroke-width:0.0129553;fill:#ffffff" />
    <path
       fill="currentColor"
       d="m 254.72047,187.84912 c -0.70996,-0.60502 -1.76582,-0.49619 -2.41748,0.17619 l -0.25521,0.26299 -0.25523,-0.26299 c -0.65035,-0.67238 -1.7075,-0.78121 -2.41745,-0.17619 -0.81361,0.6944 -0.85636,1.94071 -0.12827,2.69341 l 2.50686,2.58848 c 0.16195,0.16712 0.42493,0.16712 0.58688,0 l 2.50686,-2.58848 c 0.72939,-0.7527 0.68662,-1.99901 -0.12696,-2.69341 z"
       id="path1125"
       style="stroke-width:0.0129553;fill:#ffffff" />
    <path
       fill="currentColor"
       d="m 262.46898,197.48751 c -0.70996,-0.60502 -1.76582,-0.49619 -2.41748,0.17619 l -0.25521,0.26299 -0.25523,-0.26299 c -0.65035,-0.67238 -1.7075,-0.78121 -2.41745,-0.17619 -0.81361,0.6944 -0.85636,1.94071 -0.12827,2.69341 l 2.50686,2.58848 c 0.16195,0.16712 0.42493,0.16712 0.58688,0 l 2.50686,-2.58848 c 0.72939,-0.7527 0.68662,-1.99901 -0.12696,-2.69341 z"
       id="path1127"
       style="stroke-width:0.0129553;fill:#ffffff" />
    <path
       fill="currentColor"
       d="m 251.88565,209.77174 c -0.70996,-0.60502 -1.76582,-0.49619 -2.41748,0.17619 l -0.25521,0.26299 -0.25523,-0.26299 c -0.65035,-0.67238 -1.7075,-0.78121 -2.41745,-0.17619 -0.81361,0.6944 -0.85636,1.94071 -0.12827,2.69341 l 2.50686,2.58848 c 0.16195,0.16712 0.42493,0.16712 0.58688,0 l 2.50686,-2.58848 c 0.72939,-0.7527 0.68662,-1.99901 -0.12696,-2.69341 z"
       id="path1129"
       style="stroke-width:0.0129553;fill:#ffffff" />
    <path
       fill="currentColor"
       d="m 231.28595,206.18097 c -0.70996,-0.60502 -1.76582,-0.49619 -2.41748,0.17619 l -0.25521,0.26299 -0.25523,-0.26299 c -0.65035,-0.67238 -1.7075,-0.78121 -2.41745,-0.17619 -0.81361,0.6944 -0.85636,1.94071 -0.12827,2.69341 l 2.50686,2.58848 c 0.16195,0.16712 0.42493,0.16712 0.58688,0 l 2.50686,-2.58848 c 0.72939,-0.7527 0.68662,-1.99901 -0.12696,-2.69341 z"
       id="path1131"
       style="stroke-width:0.0129553;fill:#ffffff" />
    <path
       fill="currentColor"
       d="m 231.28595,206.18097 c -0.70996,-0.60502 -1.76582,-0.49619 -2.41748,0.17619 l -0.25521,0.26299 -0.25523,-0.26299 c -0.65035,-0.67238 -1.7075,-0.78121 -2.41745,-0.17619 -0.81361,0.6944 -0.85636,1.94071 -0.12827,2.69341 l 2.50686,2.58848 c 0.16195,0.16712 0.42493,0.16712 0.58688,0 l 2.50686,-2.58848 c 0.72939,-0.7527 0.68662,-1.99901 -0.12696,-2.69341 z"
       id="path1133"
       style="stroke-width:0.0129553;fill:#ffffff" />
    <path
       fill="currentColor"
       d="m 232.88736,115.46172 c -1.18385,-1.00887 -2.9445,-0.8274 -4.03114,0.2938 l -0.42558,0.43854 -0.42558,-0.43854 c -1.08447,-1.1212 -2.84728,-1.30267 -4.03113,-0.2938 -1.35668,1.15792 -1.42797,3.23614 -0.21387,4.49127 l 4.18019,4.31631 c 0.27004,0.27868 0.70858,0.27868 0.97862,0 l 4.1802,-4.31631 c 1.21625,-1.25513 1.14496,-3.33335 -0.21171,-4.49127 z"
       id="path1135"
       style="stroke-width:0.0216031;fill:#ffffff" />
    <path
       fill="currentColor"
       d="m 211.35207,159.50052 c -1.18385,-1.00887 -2.9445,-0.8274 -4.03114,0.2938 l -0.42558,0.43854 -0.42558,-0.43854 c -1.08447,-1.1212 -2.84728,-1.30267 -4.03113,-0.2938 -1.35668,1.15792 -1.42797,3.23614 -0.21387,4.49127 l 4.18019,4.31631 c 0.27004,0.27868 0.70858,0.27868 0.97862,0 l 4.1802,-4.31631 c 1.21625,-1.25513 1.14496,-3.33335 -0.21171,-4.49127 z"
       id="path1137"
       style="stroke-width:0.0216031;fill:#ffffff" />
    <path
       fill="currentColor"
       d="m 206.74969,134.06357 c -1.18385,-1.00887 -2.9445,-0.8274 -4.03114,0.2938 l -0.42558,0.43854 -0.42558,-0.43854 c -1.08447,-1.1212 -2.84728,-1.30267 -4.03113,-0.2938 -1.35668,1.15792 -1.42797,3.23614 -0.21387,4.49127 l 4.18019,4.31631 c 0.27004,0.27868 0.70858,0.27868 0.97862,0 l 4.1802,-4.31631 c 1.21625,-1.25513 1.14496,-3.33335 -0.21171,-4.49127 z"
       id="path1139"
       style="stroke-width:0.0216031;fill:#ffffff" />
    <path
       fill="currentColor"
       d="m 247.95037,122.94848 c -1.18385,-1.00887 -2.9445,-0.8274 -4.03114,0.2938 l -0.42558,0.43854 -0.42558,-0.43854 c -1.08447,-1.1212 -2.84728,-1.30267 -4.03113,-0.2938 -1.35668,1.15792 -1.42797,3.23614 -0.21387,4.49127 l 4.18019,4.31631 c 0.27004,0.27868 0.70858,0.27868 0.97862,0 l 4.1802,-4.31631 c 1.21625,-1.25513 1.14496,-3.33335 -0.21171,-4.49127 z"
       id="path1141"
       style="stroke-width:0.0216031;fill:#ffffff" />
    <path
       fill="currentColor"
       d="m 225.37378,96.502164 c -1.18385,-1.00887 -2.9445,-0.8274 -4.03114,0.2938 l -0.42558,0.43854 -0.42558,-0.43854 c -1.08447,-1.1212 -2.84728,-1.30267 -4.03113,-0.2938 -1.35668,1.15792 -1.42797,3.23614 -0.21387,4.491266 l 4.18019,4.31631 c 0.27004,0.27868 0.70858,0.27868 0.97862,0 l 4.1802,-4.31631 c 1.21625,-1.255126 1.14496,-3.333346 -0.21171,-4.491266 z"
       id="path1143"
       style="stroke-width:0.0216031;fill:#ffffff" />
    <path
       fill="currentColor"
       d="m 206.2625,95.323617 c -1.18385,-1.00887 -2.9445,-0.8274 -4.03114,0.2938 l -0.42558,0.43854 -0.42558,-0.43854 c -1.08447,-1.1212 -2.84728,-1.30267 -4.03113,-0.2938 -1.35668,1.15792 -1.42797,3.23614 -0.21387,4.491266 l 4.18019,4.316307 c 0.27004,0.27868 0.70858,0.27868 0.97862,0 l 4.1802,-4.316307 c 1.21625,-1.255126 1.14496,-3.333346 -0.21171,-4.491266 z"
       id="path1145"
       style="stroke-width:0.0216031;fill:#ffffff" />
    <path
       fill="currentColor"
       d="m 171.52463,86.857158 c -1.18385,-1.00887 -2.9445,-0.8274 -4.03114,0.2938 l -0.42558,0.43854 -0.42558,-0.43854 c -1.08447,-1.1212 -2.84728,-1.30267 -4.03113,-0.2938 -1.35668,1.15792 -1.42797,3.23614 -0.21387,4.491266 l 4.18019,4.316307 c 0.27004,0.27868 0.70858,0.27868 0.97862,0 l 4.1802,-4.316307 c 1.21625,-1.255126 1.14496,-3.333346 -0.21171,-4.491266 z"
       id="path1147"
       style="stroke-width:0.0216031;fill:#ffffff" />
    <path
       fill="currentColor"
       d="m 160.33784,106.52116 c -1.18385,-1.00887 -2.9445,-0.8274 -4.03114,0.2938 l -0.42558,0.43854 -0.42558,-0.43854 c -1.08447,-1.1212 -2.84728,-1.30267 -4.03113,-0.2938 -1.35668,1.15792 -1.42797,3.23614 -0.21387,4.49127 l 4.18019,4.31631 c 0.27004,0.27868 0.70858,0.27868 0.97862,0 l 4.1802,-4.31631 c 1.21625,-1.25513 1.14496,-3.33335 -0.21171,-4.49127 z"
       id="path1149"
       style="stroke-width:0.0216031;fill:#ffffff" />
    <path
       fill="currentColor"
       d="m 145.96225,160.07485 c -1.18385,-1.00887 -2.9445,-0.8274 -4.03114,0.2938 l -0.42558,0.43854 -0.42558,-0.43854 c -1.08447,-1.1212 -2.84728,-1.30267 -4.03113,-0.2938 -1.35668,1.15792 -1.42797,3.23614 -0.21387,4.49127 l 4.18019,4.31631 c 0.27004,0.27868 0.70858,0.27868 0.97862,0 l 4.1802,-4.31631 c 1.21625,-1.25513 1.14496,-3.33335 -0.21171,-4.49127 z"
       id="path1151"
       style="stroke-width:0.0216031;fill:#ffffff" />
    <path
       fill="currentColor"
       d="m 178.77754,166.6847 c -1.18385,-1.00887 -2.9445,-0.8274 -4.03114,0.2938 l -0.42558,0.43854 -0.42558,-0.43854 c -1.08447,-1.1212 -2.84728,-1.30267 -4.03113,-0.2938 -1.35668,1.15792 -1.42797,3.23614 -0.21387,4.49127 l 4.18019,4.31631 c 0.27004,0.27868 0.70858,0.27868 0.97862,0 l 4.1802,-4.31631 c 1.21625,-1.25513 1.14496,-3.33335 -0.21171,-4.49127 z"
       id="path1153"
       style="stroke-width:0.0216031;fill:#ffffff" />
    <path
       fill="currentColor"
       d="m 123.88274,172.93536 c -1.18385,-1.00887 -2.9445,-0.8274 -4.03114,0.2938 l -0.42558,0.43854 -0.42558,-0.43854 c -1.08447,-1.1212 -2.84728,-1.30267 -4.03113,-0.2938 -1.35668,1.15792 -1.42797,3.23614 -0.21387,4.49127 l 4.18019,4.31631 c 0.27004,0.27868 0.70858,0.27868 0.97862,0 l 4.1802,-4.31631 c 1.21625,-1.25513 1.14496,-3.33335 -0.21171,-4.49127 z"
       id="path1155"
       style="stroke-width:0.0216031;fill:#ffffff" />
    <path
       fill="currentColor"
       d="m 101.23124,131.36899 c -1.18385,-1.00887 -2.944503,-0.8274 -4.031143,0.2938 l -0.42558,0.43854 -0.42558,-0.43854 c -1.08447,-1.1212 -2.84728,-1.30267 -4.03113,-0.2938 -1.35668,1.15792 -1.42797,3.23614 -0.21387,4.49127 l 4.18019,4.31631 c 0.27004,0.27868 0.70858,0.27868 0.97862,0 l 4.180203,-4.31631 c 1.21625,-1.25513 1.14496,-3.33335 -0.21171,-4.49127 z"
       id="path1157"
       style="stroke-width:0.0216031;fill:#ffffff" />
    <path
       fill="currentColor"
       d="m 10.789291,159.00212 c -0.675278,-0.57547 -1.679568,-0.47196 -2.299397,0.16758 L 8.24714,159.41985 8.004385,159.1697 c -0.618592,-0.63954 -1.6241135,-0.74305 -2.2993919,-0.16758 -0.7738619,0.66048 -0.8145263,1.84592 -0.1219933,2.56186 l 2.3844172,2.46205 c 0.154033,0.15896 0.40418,0.15896 0.558213,0 l 2.384422,-2.46205 c 0.69376,-0.71594 0.653095,-1.90138 -0.120761,-2.56186 z"
       id="path1159"
       style="stroke-width:0.0123226;fill:#ffffff" />
    <path
       fill="currentColor"
       d="m 42.476222,167.27026 c -0.675278,-0.57547 -1.679568,-0.47196 -2.299397,0.16758 l -0.242754,0.25015 -0.242755,-0.25015 c -0.618592,-0.63954 -1.624114,-0.74305 -2.299392,-0.16758 -0.773862,0.66048 -0.814527,1.84592 -0.121994,2.56186 l 2.384418,2.46205 c 0.154033,0.15896 0.40418,0.15896 0.558213,0 l 2.384422,-2.46205 c 0.69376,-0.71594 0.653095,-1.90138 -0.120761,-2.56186 z"
       id="path1161"
       style="stroke-width:0.0123226;fill:#ffffff" />
    <path
       fill="currentColor"
       d="m 51.100824,186.63337 c -0.675278,-0.57547 -1.679568,-0.47196 -2.299397,0.16758 l -0.242754,0.25015 -0.242755,-0.25015 c -0.618592,-0.63954 -1.624114,-0.74305 -2.299392,-0.16758 -0.773862,0.66048 -0.814527,1.84592 -0.121994,2.56186 l 2.384418,2.46205 c 0.154033,0.15896 0.40418,0.15896 0.558213,0 l 2.384422,-2.46205 c 0.69376,-0.71594 0.653095,-1.90138 -0.120761,-2.56186 z"
       id="path1163"
       style="stroke-width:0.0123226;fill:#ffffff" />
    <path
       fill="currentColor"
       d="m 85.455378,194.58764 c -0.675278,-0.57547 -1.679568,-0.47196 -2.299397,0.16758 l -0.242754,0.25015 -0.242755,-0.25015 c -0.618592,-0.63954 -1.624114,-0.74305 -2.299392,-0.16758 -0.773862,0.66048 -0.814527,1.84592 -0.121994,2.56186 l 2.384418,2.46205 c 0.154033,0.15896 0.40418,0.15896 0.558213,0 l 2.384422,-2.46205 c 0.69376,-0.71594 0.653095,-1.90138 -0.120761,-2.56186 z"
       id="path1165"
       style="stroke-width:0.0123226;fill:#ffffff" />
    <path
       fill="currentColor"
       d="m 65.360554,207.23467 c -0.675278,-0.57547 -1.679568,-0.47196 -2.299397,0.16758 l -0.242754,0.25015 -0.242755,-0.25015 c -0.618592,-0.63954 -1.624114,-0.74305 -2.299392,-0.16758 -0.773862,0.66048 -0.814527,1.84592 -0.121994,2.56186 l 2.384418,2.46205 c 0.154033,0.15896 0.40418,0.15896 0.558213,0 l 2.384422,-2.46205 c 0.69376,-0.71594 0.653095,-1.90138 -0.120761,-2.56186 z"
       id="path1167"
       style="stroke-width:0.0123226;fill:#ffffff" />
    <path
       fill="currentColor"
       d="m 38.614348,206.36498 c -0.675278,-0.57547 -1.679568,-0.47196 -2.299397,0.16758 l -0.242754,0.25015 -0.242755,-0.25015 c -0.618592,-0.63954 -1.624114,-0.74305 -2.299392,-0.16758 -0.773862,0.66048 -0.814527,1.84592 -0.121994,2.56186 l 2.384418,2.46205 c 0.154033,0.15896 0.40418,0.15896 0.558213,0 l 2.384422,-2.46205 c 0.69376,-0.71594 0.653095,-1.90138 -0.120761,-2.56186 z"
       id="path1169"
       style="stroke-width:0.0123226;fill:#ffffff" />
    <path
       fill="currentColor"
       d="m 22.454677,199.42967 c -0.675278,-0.57547 -1.679568,-0.47196 -2.299397,0.16758 l -0.242754,0.25015 -0.242755,-0.25015 c -0.618592,-0.63954 -1.624114,-0.74305 -2.299392,-0.16758 -0.773862,0.66048 -0.814527,1.84592 -0.121994,2.56186 l 2.384418,2.46205 c 0.154033,0.15896 0.40418,0.15896 0.558213,0 l 2.384422,-2.46205 c 0.69376,-0.71594 0.653095,-1.90138 -0.120761,-2.56186 z"
       id="path1171"
       style="stroke-width:0.0123226;fill:#ffffff" />
    <path
       fill="currentColor"
       d="m 18.372219,241.20133 c -0.675278,-0.57547 -1.679568,-0.47196 -2.299397,0.16758 l -0.242754,0.25015 -0.242755,-0.25015 c -0.618592,-0.63954 -1.624114,-0.74305 -2.299392,-0.16758 -0.773862,0.66048 -0.814527,1.84592 -0.121994,2.56186 l 2.384418,2.46205 c 0.154033,0.15896 0.40418,0.15896 0.558213,0 l 2.384422,-2.46205 c 0.69376,-0.71594 0.653095,-1.90138 -0.120761,-2.56186 z"
       id="path1173"
       style="stroke-width:0.0123226;fill:#ffffff" />
    <path
       fill="currentColor"
       d="m 49.230829,232.64338 c -0.675278,-0.57547 -1.679568,-0.47196 -2.299397,0.16758 l -0.242754,0.25015 -0.242755,-0.25015 c -0.618592,-0.63954 -1.624114,-0.74305 -2.299392,-0.16758 -0.773862,0.66048 -0.814527,1.84592 -0.121994,2.56186 l 2.384418,2.46205 c 0.154033,0.15896 0.40418,0.15896 0.558213,0 l 2.384422,-2.46205 c 0.69376,-0.71594 0.653095,-1.90138 -0.120761,-2.56186 z"
       id="path1175"
       style="stroke-width:0.0123226;fill:#ffffff" />
    <path
       fill="currentColor"
       d="m 64.176986,231.31325 c -0.675278,-0.57547 -1.679568,-0.47196 -2.299397,0.16758 l -0.242754,0.25015 -0.242755,-0.25015 c -0.618592,-0.63954 -1.624114,-0.74305 -2.299392,-0.16758 -0.773862,0.66048 -0.814527,1.84592 -0.121994,2.56186 l 2.384418,2.46205 c 0.154033,0.15896 0.40418,0.15896 0.558213,0 l 2.384422,-2.46205 c 0.69376,-0.71594 0.653095,-1.90138 -0.120761,-2.56186 z"
       id="path1177"
       style="stroke-width:0.0123226;fill:#ffffff" />
    <path
       fill="currentColor"
       d="m 110.7881,221.67841 c -0.67527,-0.57547 -1.67956,-0.47196 -2.29939,0.16758 l -0.24276,0.25015 -0.24275,-0.25015 c -0.61859,-0.63954 -1.62412,-0.74305 -2.29939,-0.16758 -0.77387,0.66048 -0.81453,1.84592 -0.122,2.56186 l 2.38442,2.46205 c 0.15403,0.15896 0.40418,0.15896 0.55821,0 l 2.38442,-2.46205 c 0.69376,-0.71594 0.6531,-1.90138 -0.12076,-2.56186 z"
       id="path1179"
       style="stroke-width:0.0123226;fill:#ffffff" />
    <path
       fill="currentColor"
       d="m 117.19362,205.7953 c -0.67527,-0.57547 -1.67956,-0.47196 -2.29939,0.16758 l -0.24276,0.25015 -0.24275,-0.25015 c -0.61859,-0.63954 -1.62412,-0.74305 -2.29939,-0.16758 -0.77387,0.66048 -0.81453,1.84592 -0.122,2.56186 l 2.38442,2.46205 c 0.15403,0.15896 0.40418,0.15896 0.55821,0 l 2.38442,-2.46205 c 0.69376,-0.71594 0.6531,-1.90138 -0.12076,-2.56186 z"
       id="path1181"
       style="stroke-width:0.0123226;fill:#ffffff" />
    <path
       fill="currentColor"
       d="m 148.88988,214.5979 c -0.67527,-0.57547 -1.67956,-0.47196 -2.29939,0.16758 l -0.24276,0.25015 -0.24275,-0.25015 c -0.61859,-0.63954 -1.62412,-0.74305 -2.29939,-0.16758 -0.77387,0.66048 -0.81453,1.84592 -0.122,2.56186 l 2.38442,2.46205 c 0.15403,0.15896 0.40418,0.15896 0.55821,0 l 2.38442,-2.46205 c 0.69376,-0.71594 0.6531,-1.90138 -0.12076,-2.56186 z"
       id="path1183"
       style="stroke-width:0.0123226;fill:#ffffff" />
    <path
       fill="currentColor"
       d="m 175.18829,189.81363 c -0.67527,-0.57547 -1.67956,-0.47196 -2.29939,0.16758 l -0.24276,0.25015 -0.24275,-0.25015 c -0.61859,-0.63954 -1.62412,-0.74305 -2.29939,-0.16758 -0.77387,0.66048 -0.81453,1.84592 -0.122,2.56186 l 2.38442,2.46205 c 0.15403,0.15896 0.40418,0.15896 0.55821,0 l 2.38442,-2.46205 c 0.69376,-0.71594 0.6531,-1.90138 -0.12076,-2.56186 z"
       id="path1187"
       style="stroke-width:0.0123226;fill:#ffffff" />
    <path
       fill="currentColor"
       d="m 192.41282,242.4404 c -0.67527,-0.57547 -1.67956,-0.47196 -2.29939,0.16758 l -0.24276,0.25015 -0.24275,-0.25015 c -0.61859,-0.63954 -1.62412,-0.74305 -2.29939,-0.16758 -0.77387,0.66048 -0.81453,1.84592 -0.122,2.56186 l 2.38442,2.46205 c 0.15403,0.15896 0.40418,0.15896 0.55821,0 l 2.38442,-2.46205 c 0.69376,-0.71594 0.6531,-1.90138 -0.12076,-2.56186 z"
       id="path1189"
       style="stroke-width:0.0123226;fill:#ffffff" />
    <path
       fill="currentColor"
       d="m 206.53998,224.81864 c -0.67527,-0.57547 -1.67956,-0.47196 -2.29939,0.16758 l -0.24276,0.25015 -0.24275,-0.25015 c -0.61859,-0.63954 -1.62412,-0.74305 -2.29939,-0.16758 -0.77387,0.66048 -0.81453,1.84592 -0.122,2.56186 l 2.38442,2.46205 c 0.15403,0.15896 0.40418,0.15896 0.55821,0 l 2.38442,-2.46205 c 0.69376,-0.71594 0.6531,-1.90138 -0.12076,-2.56186 z"
       id="path1191"
       style="stroke-width:0.0123226;fill:#ffffff" />
    <path
       fill="currentColor"
       d="m 230.61856,226.00221 c -0.67527,-0.57547 -1.67956,-0.47196 -2.29939,0.16758 l -0.24276,0.25015 -0.24275,-0.25015 c -0.61859,-0.63954 -1.62412,-0.74305 -2.29939,-0.16758 -0.77387,0.66048 -0.81453,1.84592 -0.122,2.56186 l 2.38442,2.46205 c 0.15403,0.15896 0.40418,0.15896 0.55821,0 l 2.38442,-2.46205 c 0.69376,-0.71594 0.6531,-1.90138 -0.12076,-2.56186 z"
       id="path1193"
       style="stroke-width:0.0123226;fill:#ffffff" />
    <path
       fill="currentColor"
       d="m 139.51245,242.83848 c -0.67527,-0.57547 -1.67956,-0.47196 -2.29939,0.16758 l -0.24276,0.25015 -0.24275,-0.25015 c -0.61859,-0.63954 -1.62412,-0.74305 -2.29939,-0.16758 -0.77387,0.66048 -0.81453,1.84592 -0.122,2.56186 l 2.38442,2.46205 c 0.15403,0.15896 0.40418,0.15896 0.55821,0 l 2.38442,-2.46205 c 0.69376,-0.71594 0.6531,-1.90138 -0.12076,-2.56186 z"
       id="path1185"
       style="stroke-width:0.0123226;fill:#ffffff" />
  </g>
</svg>
